<svg xmlns="http://www.w3.org/2000/svg" viewBox="0 0 32 32">
  <!-- Diamond Pickaxe Head - Left tip -->
  <rect x="4" y="10" width="2" height="2" fill="#5dade2"/>
  <rect x="6" y="10" width="2" height="2" fill="#3498db"/>

  <!-- Diamond Pickaxe Head - Main body -->
  <rect x="8" y="8" width="2" height="2" fill="#5dade2"/>
  <rect x="8" y="10" width="2" height="2" fill="#3498db"/>
  <rect x="8" y="12" width="2" height="2" fill="#2980b9"/>

  <rect x="10" y="8" width="2" height="2" fill="#85d4f5"/>
  <rect x="10" y="10" width="2" height="2" fill="#5dade2"/>
  <rect x="10" y="12" width="2" height="2" fill="#3498db"/>

  <rect x="12" y="8" width="2" height="2" fill="#5dade2"/>
  <rect x="12" y="10" width="2" height="2" fill="#3498db"/>
  <rect x="12" y="12" width="2" height="2" fill="#2980b9"/>

  <rect x="14" y="10" width="2" height="2" fill="#5dade2"/>
  <rect x="14" y="12" width="2" height="2" fill="#3498db"/>

  <!-- Diamond Pickaxe Head - Right tip -->
  <rect x="16" y="10" width="2" height="2" fill="#85d4f5"/>
  <rect x="18" y="10" width="2" height="2" fill="#5dade2"/>
  <rect x="20" y="10" width="2" height="2" fill="#3498db"/>
  <rect x="22" y="10" width="2" height="2" fill="#2980b9"/>

  <!-- Handle connection -->
  <rect x="12" y="14" width="2" height="2" fill="#8b6f47"/>

  <!-- Wooden Handle -->
  <rect x="13" y="16" width="2" height="2" fill="#8b6f47"/>
  <rect x="14" y="18" width="2" height="2" fill="#8b6f47"/>
  <rect x="15" y="20" width="2" height="2" fill="#654b2f"/>
  <rect x="16" y="22" width="2" height="2" fill="#654b2f"/>
  <rect x="17" y="24" width="2" height="2" fill="#4a3621"/>
  <rect x="18" y="26" width="2" height="2" fill="#4a3621"/>
</svg>